<svg xmlns="http://www.w3.org/2000/svg" xmlns:xlink="http://www.w3.org/1999/xlink" width="232.094" height="164.785" viewBox="0 0 232.094 164.785"><defs><style>.a{fill:url(#a);}.b{fill:url(#b);}.c{fill:url(#e);}.d{fill:url(#f);}.e{filter:url(#g);}.f{filter:url(#c);}</style><linearGradient id="a" x1="-1.126" y1="5.045" x2="-2.126" y2="5.045" gradientUnits="objectBoundingBox"><stop offset="0" stop-color="#d50000"/><stop offset="0.314" stop-color="#ee5a5a"/><stop offset="1" stop-color="#ff9797"/></linearGradient><linearGradient id="b" x1="-0.107" y1="0.063" x2="0.413" y2="-0.937" gradientUnits="objectBoundingBox"><stop offset="0" stop-color="#ff2e2e"/><stop offset="0.425" stop-color="#d50000"/><stop offset="1" stop-color="#950000"/></linearGradient><filter id="c" x="0" y="82.557" width="232.094" height="82.228" filterUnits="userSpaceOnUse"><feOffset dy="-3" input="SourceAlpha"/><feGaussianBlur stdDeviation="3" result="d"/><feFlood flood-opacity="0.161"/><feComposite operator="in" in2="d"/><feComposite in="SourceGraphic"/></filter><linearGradient id="e" x1="-0.39" y1="4.402" x2="-1.39" y2="4.402" gradientUnits="objectBoundingBox"><stop offset="0" stop-color="#8e8e8e"/><stop offset="1" stop-color="#006d15"/></linearGradient><linearGradient id="f" y1="0.451" x2="1.032" y2="0.219" gradientUnits="objectBoundingBox"><stop offset="0" stop-color="#d4d4d4"/><stop offset="1" stop-color="#484646"/></linearGradient><filter id="g" x="0" y="0" width="232.093" height="82.228" filterUnits="userSpaceOnUse"><feOffset dy="3" input="SourceAlpha"/><feGaussianBlur stdDeviation="3" result="h"/><feFlood flood-opacity="0.161"/><feComposite operator="in" in2="h"/><feComposite in="SourceGraphic"/></filter></defs><g transform="translate(-515.049 -261.61)"><g transform="translate(524.049 267.61)"><rect class="a" width="152.785" height="42.819" rx="21.409" transform="translate(42.819 0) rotate(90)"/><g class="f" transform="matrix(1, 0, 0, 1, -9, -6)"><path class="b" d="M500.41,369.187H671.684a21.4,21.4,0,0,1,21.4,20.9c.281,12.1-9.788,21.919-21.888,21.919H500.41A21.4,21.4,0,0,1,479,390.6V347.777A21.409,21.409,0,0,0,500.41,369.187Z" transform="translate(-470 -253.22)"/></g><rect class="c" width="152.785" height="42.819" rx="21.409" transform="translate(171.275 152.785) rotate(-90)"/><g class="e" transform="matrix(1, 0, 0, 1, -9, -6)"><path class="d" d="M671.684,264.819H500.41a21.409,21.409,0,1,1,0-42.819H671.684a21.4,21.4,0,0,1,21.409,21.41v42.819A21.409,21.409,0,0,0,671.684,264.819Z" transform="translate(-470 -216)"/></g></g></g></svg>