<svg xmlns="http://www.w3.org/2000/svg" xmlns:xlink="http://www.w3.org/1999/xlink" width="1366" height="768" viewBox="0 0 1366 768"><defs><style>.a{clip-path:url(#y);}.b,.m{fill:#333;}.c{fill:#656565;}.d{fill:url(#a);}.e{fill:url(#b);}.f{fill:url(#e);}.g{fill:url(#f);}.h{fill:url(#i);}.i{fill:#c50000;}.j{fill:url(#n);}.k{fill:#9d9c9c;}.l{fill:url(#s);}.m,.n{font-size:16px;font-family:Roboto-Regular, Roboto;}.n,.o{fill:#fff;}.p{filter:url(#v);}.q{filter:url(#t);}.r{filter:url(#q);}.s{filter:url(#o);}.t{filter:url(#l);}.u{filter:url(#j);}.v{filter:url(#g);}.w{filter:url(#c);}</style><linearGradient id="a" x1="-1.126" y1="5.045" x2="-2.126" y2="5.045" gradientUnits="objectBoundingBox"><stop offset="0" stop-color="#d50000"/><stop offset="0.314" stop-color="#ee5a5a"/><stop offset="1" stop-color="#ff9797"/></linearGradient><linearGradient id="b" x1="-0.107" y1="0.063" x2="0.413" y2="-0.937" gradientUnits="objectBoundingBox"><stop offset="0" stop-color="#ff2e2e"/><stop offset="0.425" stop-color="#d50000"/><stop offset="1" stop-color="#950000"/></linearGradient><filter id="c" x="530.228" y="91.631" width="112.344" height="46.303" filterUnits="userSpaceOnUse"><feOffset dy="-3" input="SourceAlpha"/><feGaussianBlur stdDeviation="3" result="d"/><feFlood flood-opacity="0.161"/><feComposite operator="in" in2="d"/><feComposite in="SourceGraphic"/></filter><linearGradient id="e" x1="-0.39" y1="4.402" x2="-1.39" y2="4.402" gradientUnits="objectBoundingBox"><stop offset="0" stop-color="#8e8e8e"/><stop offset="1" stop-color="#006d15"/></linearGradient><linearGradient id="f" y1="0.451" x2="1.032" y2="0.219" gradientUnits="objectBoundingBox"><stop offset="0" stop-color="#d4d4d4"/><stop offset="1" stop-color="#484646"/></linearGradient><filter id="g" x="530.228" y="58.607" width="112.344" height="46.303" filterUnits="userSpaceOnUse"><feOffset dy="3" input="SourceAlpha"/><feGaussianBlur stdDeviation="3" result="h"/><feFlood flood-opacity="0.161"/><feComposite operator="in" in2="h"/><feComposite in="SourceGraphic"/></filter><linearGradient id="i" x1="0.5" x2="0.5" y2="1" gradientUnits="objectBoundingBox"><stop offset="0" stop-color="red"/><stop offset="1" stop-color="#9f0000"/></linearGradient><filter id="j" x="420" y="211" width="151" height="346" filterUnits="userSpaceOnUse"><feOffset input="SourceAlpha"/><feGaussianBlur stdDeviation="10" result="k"/><feFlood flood-opacity="0.161"/><feComposite operator="in" in2="k"/><feComposite in="SourceGraphic"/></filter><filter id="l" x="421" y="530" width="150" height="150" filterUnits="userSpaceOnUse"><feOffset input="SourceAlpha"/><feGaussianBlur stdDeviation="10" result="m"/><feFlood flood-opacity="0.161"/><feComposite operator="in" in2="m"/><feComposite in="SourceGraphic"/></filter><linearGradient id="n" x1="0.5" x2="0.5" y2="1" gradientUnits="objectBoundingBox"><stop offset="0" stop-color="#bcbcbc"/><stop offset="1" stop-color="#9d9c9c"/></linearGradient><filter id="o" x="608" y="211" width="151" height="346" filterUnits="userSpaceOnUse"><feOffset input="SourceAlpha"/><feGaussianBlur stdDeviation="10" result="p"/><feFlood flood-opacity="0.161"/><feComposite operator="in" in2="p"/><feComposite in="SourceGraphic"/></filter><filter id="q" x="609" y="530" width="150" height="150" filterUnits="userSpaceOnUse"><feOffset input="SourceAlpha"/><feGaussianBlur stdDeviation="10" result="r"/><feFlood flood-opacity="0.161"/><feComposite operator="in" in2="r"/><feComposite in="SourceGraphic"/></filter><linearGradient id="s" x1="0.5" x2="0.5" y2="1" gradientUnits="objectBoundingBox"><stop offset="0" stop-color="#5e5e5e"/><stop offset="1" stop-color="#363636"/></linearGradient><filter id="t" x="795" y="211" width="151" height="346" filterUnits="userSpaceOnUse"><feOffset input="SourceAlpha"/><feGaussianBlur stdDeviation="10" result="u"/><feFlood flood-opacity="0.161"/><feComposite operator="in" in2="u"/><feComposite in="SourceGraphic"/></filter><filter id="v" x="796" y="530" width="150" height="150" filterUnits="userSpaceOnUse"><feOffset input="SourceAlpha"/><feGaussianBlur stdDeviation="10" result="w"/><feFlood flood-opacity="0.161"/><feComposite operator="in" in2="w"/><feComposite in="SourceGraphic"/></filter><clipPath id="y"><rect width="1366" height="768"/></clipPath></defs><g id="x" class="a"><rect class="o" width="1366" height="768"/><g transform="translate(644.761 66.01)"><path class="b" d="M479.808,506.728V469.719h10v28.934h14.252v8.075Z" transform="translate(-479.808 -469.567)"/><path class="b" d="M561.773,469.719V492q0,7.264-4.114,11.252t-11.86,3.987q-7.569,0-11.632-3.873T530.1,492.223v-22.5h10.05v21.72q0,3.924,1.468,5.7a6.33,6.33,0,0,0,8.771.012q1.38-1.759,1.38-5.759V469.719Z" transform="translate(-500.132 -469.567)"/><path class="b" d="M631.527,506.728H618.414L604.9,480.655h-.227q.48,6.152.48,9.392v16.682h-8.86V469.719h13.062l13.468,25.719h.151q-.354-5.595-.354-8.987V469.719h8.911Z" transform="translate(-526.877 -469.567)"/><path class="b" d="M688.84,506.625l-1.822-6.936H674.994l-1.873,6.936H662.134l12.075-37.161h13.341l12.227,37.161Zm-3.9-15.138-1.6-6.075q-.557-2.026-1.354-5.24t-1.051-4.607q-.227,1.291-.9,4.253t-2.974,11.67Z" transform="translate(-553.484 -469.464)"/><path class="b" d="M742.014,493.262v13.467h-10V469.719h12.125q15.087,0,15.088,10.936,0,6.43-6.279,9.949l10.784,16.125H752.393l-7.847-13.467Zm0-7.519h1.872q5.242,0,5.24-4.632,0-3.822-5.139-3.822h-1.974Z" transform="translate(-581.723 -469.567)"/></g><g transform="translate(644.761 111.456)"><path class="c" d="M555.113,550.668h7.146a7.4,7.4,0,0,1,2.683.465,6.194,6.194,0,0,1,2.066,1.287,5.615,5.615,0,0,1,1.328,1.958,6.482,6.482,0,0,1,.465,2.477,5.148,5.148,0,0,1-.328,1.848,5.538,5.538,0,0,1-.9,1.561,6.692,6.692,0,0,1-1.342,1.232,6.8,6.8,0,0,1-1.615.835l-.027.192,5.257,7.529v.219H565.6l-5.065-7.365h-1.725v7.365h-3.7Zm7.118,8.844a2.884,2.884,0,0,0,2.067-.768,2.565,2.565,0,0,0,.807-1.944,2.991,2.991,0,0,0-.177-1.013,2.544,2.544,0,0,0-.534-.875,2.625,2.625,0,0,0-.89-.617,3.048,3.048,0,0,0-1.219-.231h-3.476v5.448Z" transform="translate(-555.113 -550.23)"/><path class="c" d="M583.487,570.65a10.306,10.306,0,0,1-4.066-.794,9.9,9.9,0,0,1-5.393-5.434,10.7,10.7,0,0,1,0-8.022,9.906,9.906,0,0,1,5.393-5.435,10.806,10.806,0,0,1,8.131,0,9.914,9.914,0,0,1,5.393,5.435,10.694,10.694,0,0,1,0,8.022,10.087,10.087,0,0,1-2.15,3.258,9.984,9.984,0,0,1-3.244,2.176A10.311,10.311,0,0,1,583.487,570.65Zm0-3.5a6.628,6.628,0,0,0,2.559-.494,6.44,6.44,0,0,0,2.081-1.369,6.23,6.23,0,0,0,1.4-2.121,7.724,7.724,0,0,0,0-5.5,6.246,6.246,0,0,0-1.4-2.121,6.455,6.455,0,0,0-2.081-1.369,6.907,6.907,0,0,0-5.12,0,6.454,6.454,0,0,0-2.081,1.369,6.245,6.245,0,0,0-1.4,2.121,7.735,7.735,0,0,0,0,5.5,6.228,6.228,0,0,0,1.4,2.121,6.439,6.439,0,0,0,2.081,1.369A6.629,6.629,0,0,0,583.487,567.147Z" transform="translate(-557.232 -550.172)"/><path class="c" d="M599.815,550.668h7.666a6.853,6.853,0,0,1,2.354.4,6.026,6.026,0,0,1,1.9,1.094,5.251,5.251,0,0,1,1.274,1.629,4.743,4.743,0,0,1-.287,4.614,4.943,4.943,0,0,1-1.876,1.6v.219a5.343,5.343,0,0,1,2.423,1.712,4.524,4.524,0,0,1,.917,2.888,4.94,4.94,0,0,1-.506,2.259,5.229,5.229,0,0,1-1.383,1.711,6.358,6.358,0,0,1-2.039,1.1,7.979,7.979,0,0,1-2.506.382h-7.939Zm7.392,8a2.688,2.688,0,0,0,1.985-.7,2.315,2.315,0,0,0,.013-3.3,2.554,2.554,0,0,0-1.889-.684h-3.805v4.682Zm.411,8.213a2.991,2.991,0,0,0,2.135-.7,2.354,2.354,0,0,0,.739-1.793,2.424,2.424,0,0,0-.752-1.82,3.1,3.1,0,0,0-2.232-.726h-4v5.038Z" transform="translate(-560.337 -550.23)"/><path class="c" d="M628.468,570.65a10.3,10.3,0,0,1-4.065-.794,9.979,9.979,0,0,1-3.245-2.176,10.085,10.085,0,0,1-2.15-3.258,10.7,10.7,0,0,1,0-8.022,9.912,9.912,0,0,1,5.394-5.435,10.806,10.806,0,0,1,8.131,0,9.909,9.909,0,0,1,5.393,5.435,10.693,10.693,0,0,1,0,8.022,9.9,9.9,0,0,1-5.393,5.434A10.312,10.312,0,0,1,628.468,570.65Zm0-3.5a6.636,6.636,0,0,0,2.56-.494,6.444,6.444,0,0,0,2.08-1.369,6.229,6.229,0,0,0,1.4-2.121,7.723,7.723,0,0,0,0-5.5,6.245,6.245,0,0,0-1.4-2.121,6.459,6.459,0,0,0-2.08-1.369,6.907,6.907,0,0,0-5.12,0,6.448,6.448,0,0,0-2.082,1.369,6.245,6.245,0,0,0-1.4,2.121,7.736,7.736,0,0,0,0,5.5,6.229,6.229,0,0,0,1.4,2.121,6.433,6.433,0,0,0,2.082,1.369A6.622,6.622,0,0,0,628.468,567.147Z" transform="translate(-562.488 -550.172)"/><path class="c" d="M647.854,570.27v-16.1h-5.475v-3.505h14.647v3.505H651.55v16.1Z" transform="translate(-565.31 -550.23)"/><path class="c" d="M661.938,550.668h3.7v19.6h-3.7Z" transform="translate(-567.596 -550.23)"/><path class="c" d="M687.289,567.064a9.735,9.735,0,0,1-3.422,2.669,10.929,10.929,0,0,1-8.473.124,9.932,9.932,0,0,1-5.407-5.407,10.669,10.669,0,0,1,0-8.077,9.947,9.947,0,0,1,5.407-5.407,10.318,10.318,0,0,1,4.065-.794,9.859,9.859,0,0,1,4.148.822,9.651,9.651,0,0,1,3.189,2.381l-2.6,2.519a6.961,6.961,0,0,0-2.013-1.615,5.686,5.686,0,0,0-2.7-.6,6.889,6.889,0,0,0-2.573.479,6.23,6.23,0,0,0-2.095,1.355,6.4,6.4,0,0,0-1.409,2.122,7.682,7.682,0,0,0,0,5.558,6.383,6.383,0,0,0,1.409,2.121,6.218,6.218,0,0,0,2.095,1.356,6.89,6.89,0,0,0,2.573.48,6.153,6.153,0,0,0,2.915-.671,7.178,7.178,0,0,0,2.259-1.9Z" transform="translate(-568.444 -550.172)"/><path class="c" d="M698.853,570.65a8.092,8.092,0,0,1-2.409-.356,6.95,6.95,0,0,1-2.108-1.068,7.372,7.372,0,0,1-1.671-1.739,8.4,8.4,0,0,1-1.122-2.4l3.476-1.368a5.309,5.309,0,0,0,1.342,2.45,3.381,3.381,0,0,0,2.519.972,4.05,4.05,0,0,0,1.108-.151,3.3,3.3,0,0,0,.958-.438,2.118,2.118,0,0,0,.671-.726,2.03,2.03,0,0,0,.246-1.013,2.44,2.44,0,0,0-.191-.985,2.314,2.314,0,0,0-.644-.822,5.764,5.764,0,0,0-1.177-.739,17.884,17.884,0,0,0-1.793-.739l-1.2-.438a9.153,9.153,0,0,1-1.6-.739,6.987,6.987,0,0,1-1.464-1.121,5.548,5.548,0,0,1-1.082-1.547,4.62,4.62,0,0,1-.424-2.013,5.156,5.156,0,0,1,.452-2.149,5.25,5.25,0,0,1,1.287-1.753,6.064,6.064,0,0,1,2-1.177,7.533,7.533,0,0,1,2.588-.424,7.421,7.421,0,0,1,2.559.4A6.32,6.32,0,0,1,703,551.583a5.622,5.622,0,0,1,1.218,1.356,6.565,6.565,0,0,1,.684,1.4l-3.259,1.37a3.465,3.465,0,0,0-1-1.478,2.85,2.85,0,0,0-1.985-.657,3.386,3.386,0,0,0-2,.56,1.72,1.72,0,0,0-.795,1.466,1.855,1.855,0,0,0,.767,1.492,8.37,8.37,0,0,0,2.436,1.191l1.233.41a14.015,14.015,0,0,1,2.149.945,6.733,6.733,0,0,1,1.67,1.273,5.173,5.173,0,0,1,1.068,1.683,5.949,5.949,0,0,1,.37,2.177,5.36,5.36,0,0,1-.616,2.642,5.668,5.668,0,0,1-1.575,1.82,6.846,6.846,0,0,1-2.164,1.068A8.275,8.275,0,0,1,698.853,570.65Z" transform="translate(-571.055 -550.172)"/></g><g transform="translate(539.228 64.607)"><rect class="d" width="67.327" height="18.869" rx="9.434" transform="translate(18.869 0) rotate(90)"/><g class="w" transform="matrix(1, 0, 0, 1, -539.23, -64.61)"><path class="e" d="M488.434,357.211h75.475a9.429,9.429,0,0,1,9.432,9.21,9.573,9.573,0,0,1-9.645,9.659H488.434A9.429,9.429,0,0,1,479,366.646V347.777A9.434,9.434,0,0,0,488.434,357.211Z" transform="translate(60.23 -244.15)"/></g><rect class="f" width="67.327" height="18.869" rx="9.434" transform="translate(75.475 67.327) rotate(-90)"/><g class="v" transform="matrix(1, 0, 0, 1, -539.23, -64.61)"><path class="g" d="M563.909,240.869H488.434a9.434,9.434,0,1,1,0-18.869h75.475a9.429,9.429,0,0,1,9.434,9.434V250.3A9.434,9.434,0,0,0,563.909,240.869Z" transform="translate(60.23 -157.39)"/></g></g><g class="u" transform="matrix(1, 0, 0, 1, 0, 0)"><rect class="h" width="91" height="286" rx="45.5" transform="translate(450 241)"/></g><g class="t" transform="matrix(1, 0, 0, 1, 0, 0)"><circle class="i" cx="45" cy="45" r="45" transform="translate(451 560)"/></g><g class="s" transform="matrix(1, 0, 0, 1, 0, 0)"><rect class="j" width="91" height="286" rx="45.5" transform="translate(638 241)"/></g><g class="r" transform="matrix(1, 0, 0, 1, 0, 0)"><circle class="k" cx="45" cy="45" r="45" transform="translate(639 560)"/></g><g class="q" transform="matrix(1, 0, 0, 1, 0, 0)"><rect class="l" width="91" height="286" rx="45.5" transform="translate(825 241)"/></g><g class="p" transform="matrix(1, 0, 0, 1, 0, 0)"><circle class="b" cx="45" cy="45" r="45" transform="translate(826 560)"/></g><text class="m" transform="translate(496 695)"><tspan x="-32.648" y="0">#C50000</tspan></text><text class="n" transform="translate(496 494)"><tspan x="-31.863" y="0">#9F0000</tspan></text><text class="n" transform="translate(496 281)"><tspan x="-31.793" y="0">#FF0000</tspan></text><text class="m" transform="translate(683 695)"><tspan x="-34.117" y="0">#9D9C9C</tspan></text><text class="n" transform="translate(683 494)"><tspan x="-34.117" y="0">#9D9C9C</tspan></text><text class="n" transform="translate(683 281)"><tspan x="-35.543" y="0">#BCBCBC</tspan></text><text class="m" transform="translate(871 695)"><tspan x="-31.934" y="0">#333333</tspan></text><text class="n" transform="translate(871 494)"><tspan x="-31.922" y="0">#363636</tspan></text><text class="n" transform="translate(871 281)"><tspan x="-32.098" y="0">#5E5E5E</tspan></text></g></svg>