<svg xmlns="http://www.w3.org/2000/svg" xmlns:xlink="http://www.w3.org/1999/xlink" width="1366" height="768" viewBox="0 0 1366 768"><defs><style>.a{clip-path:url(#ap);}.b{fill:url(#a);}.c{fill:url(#b);}.d{fill:url(#e);}.e{fill:url(#f);}.f{fill:#b40000;}.g{fill:#00a210;}.h{fill:none;stroke:#707070;}.i{fill:#bbb;}.j{fill:#fff;}.k{filter:url(#am);}.l{filter:url(#ai);}.m{filter:url(#ae);}.n{filter:url(#aa);}.o{filter:url(#w);}.p{filter:url(#s);}.q{filter:url(#o);}.r{filter:url(#k);}.s{filter:url(#g);}.t{filter:url(#c);}</style><linearGradient id="a" x1="-1.126" y1="5.045" x2="-2.126" y2="5.045" gradientUnits="objectBoundingBox"><stop offset="0" stop-color="#d50000"/><stop offset="0.314" stop-color="#ee5a5a"/><stop offset="1" stop-color="#ff9797"/></linearGradient><linearGradient id="b" x1="-0.107" y1="0.063" x2="0.413" y2="-0.937" gradientUnits="objectBoundingBox"><stop offset="0" stop-color="#ff2e2e"/><stop offset="0.425" stop-color="#d50000"/><stop offset="1" stop-color="#950000"/></linearGradient><filter id="c" x="197.523" y="346.164" width="232.094" height="82.228" filterUnits="userSpaceOnUse"><feOffset dy="-3" input="SourceAlpha"/><feGaussianBlur stdDeviation="3" result="d"/><feFlood flood-opacity="0.161"/><feComposite operator="in" in2="d"/><feComposite in="SourceGraphic"/></filter><linearGradient id="e" x1="-0.39" y1="4.402" x2="-1.39" y2="4.402" gradientUnits="objectBoundingBox"><stop offset="0" stop-color="#8e8e8e"/><stop offset="1" stop-color="#006d15"/></linearGradient><linearGradient id="f" y1="0.451" x2="1.032" y2="0.219" gradientUnits="objectBoundingBox"><stop offset="0" stop-color="#d4d4d4"/><stop offset="1" stop-color="#484646"/></linearGradient><filter id="g" x="197.523" y="263.607" width="232.094" height="82.228" filterUnits="userSpaceOnUse"><feOffset dy="3" input="SourceAlpha"/><feGaussianBlur stdDeviation="3" result="h"/><feFlood flood-opacity="0.161"/><feComposite operator="in" in2="h"/><feComposite in="SourceGraphic"/></filter><filter id="k" x="808.523" y="121.607" width="125.047" height="50.114" filterUnits="userSpaceOnUse"><feOffset dy="-3" input="SourceAlpha"/><feGaussianBlur stdDeviation="3" result="l"/><feFlood flood-opacity="0.161"/><feComposite operator="in" in2="l"/><feComposite in="SourceGraphic"/></filter><filter id="o" x="808.523" y="171.886" width="125.047" height="50.114" filterUnits="userSpaceOnUse"><feOffset dy="3" input="SourceAlpha"/><feGaussianBlur stdDeviation="3" result="p"/><feFlood flood-opacity="0.161"/><feComposite operator="in" in2="p"/><feComposite in="SourceGraphic"/></filter><filter id="s" x="797.191" y="421.948" width="116.402" height="116.402" filterUnits="userSpaceOnUse"><feOffset dy="-3" input="SourceAlpha"/><feGaussianBlur stdDeviation="3" result="t"/><feFlood flood-opacity="0.161"/><feComposite operator="in" in2="t"/><feComposite in="SourceGraphic"/></filter><filter id="w" x="828.502" y="459.258" width="116.401" height="116.402" filterUnits="userSpaceOnUse"><feOffset dy="3" input="SourceAlpha"/><feGaussianBlur stdDeviation="3" result="x"/><feFlood flood-opacity="0.161"/><feComposite operator="in" in2="x"/><feComposite in="SourceGraphic"/></filter><filter id="aa" x="1135.13" y="106.281" width="50.113" height="125.047" filterUnits="userSpaceOnUse"><feOffset dy="-3" input="SourceAlpha"/><feGaussianBlur stdDeviation="3" result="ab"/><feFlood flood-opacity="0.161"/><feComposite operator="in" in2="ab"/><feComposite in="SourceGraphic"/></filter><filter id="ae" x="1090.852" y="112.281" width="50.114" height="125.047" filterUnits="userSpaceOnUse"><feOffset dy="3" input="SourceAlpha"/><feGaussianBlur stdDeviation="3" result="af"/><feFlood flood-opacity="0.161"/><feComposite operator="in" in2="af"/><feComposite in="SourceGraphic"/></filter><filter id="ai" x="1075.523" y="448.607" width="125.047" height="50.114" filterUnits="userSpaceOnUse"><feOffset dy="-3" input="SourceAlpha"/><feGaussianBlur stdDeviation="3" result="aj"/><feFlood flood-opacity="0.161"/><feComposite operator="in" in2="aj"/><feComposite in="SourceGraphic"/></filter><filter id="am" x="1075.523" y="525.545" width="125.047" height="50.114" filterUnits="userSpaceOnUse"><feOffset dy="3" input="SourceAlpha"/><feGaussianBlur stdDeviation="3" result="an"/><feFlood flood-opacity="0.161"/><feComposite operator="in" in2="an"/><feComposite in="SourceGraphic"/></filter><clipPath id="ap"><rect width="1366" height="768"/></clipPath></defs><g id="ao" class="a"><rect class="j" width="1366" height="768"/><g transform="translate(-317.525 1.997)"><g transform="translate(524.049 267.61)"><rect class="b" width="152.785" height="42.819" rx="21.409" transform="translate(42.819 0) rotate(90)"/><g class="t" transform="matrix(1, 0, 0, 1, -206.52, -269.61)"><path class="c" d="M500.41,369.187H671.684a21.4,21.4,0,0,1,21.4,20.9c.281,12.1-9.788,21.919-21.888,21.919H500.41A21.4,21.4,0,0,1,479,390.6V347.777A21.409,21.409,0,0,0,500.41,369.187Z" transform="translate(-272.48 10.39)"/></g><rect class="d" width="152.785" height="42.819" rx="21.409" transform="translate(171.275 152.785) rotate(-90)"/><g class="s" transform="matrix(1, 0, 0, 1, -206.52, -269.61)"><path class="e" d="M671.684,264.819H500.41a21.409,21.409,0,1,1,0-42.819H671.684a21.4,21.4,0,0,1,21.409,21.41v42.819A21.409,21.409,0,0,0,671.684,264.819Z" transform="translate(-272.48 47.61)"/></g></g></g><g transform="translate(1448.62 477.61) rotate(180)"><g transform="translate(524.049 267.61)"><rect class="b" width="76.393" height="21.409" rx="10.705" transform="translate(21.409 0) rotate(90)"/><g class="r" transform="matrix(-1, 0, 0, -1, 924.57, 210)"><path class="c" d="M489.7,358.482h85.637a10.7,10.7,0,0,1,10.7,10.45,10.862,10.862,0,0,1-10.944,10.96H489.7a10.7,10.7,0,0,1-10.7-10.7V347.777A10.7,10.7,0,0,0,489.7,358.482Z" transform="translate(1403.57 513.5) rotate(180)"/></g><rect class="d" width="76.393" height="21.409" rx="10.705" transform="translate(85.637 76.393) rotate(-90)"/><g class="q" transform="matrix(-1, 0, 0, -1, 924.57, 210)"><path class="e" d="M575.342,243.409H489.7a10.7,10.7,0,1,1,0-21.409h85.637a10.7,10.7,0,0,1,10.7,10.7v21.409A10.7,10.7,0,0,0,575.342,243.409Z" transform="translate(1403.57 432) rotate(180)"/></g></g></g><g transform="translate(1495.691 306.636) rotate(135)"><g transform="translate(524.049 267.61)"><rect class="b" width="76.393" height="21.409" rx="10.705" transform="translate(21.409 0) rotate(90)"/><g class="p" transform="matrix(-0.71, -0.71, 0.71, -0.71, 316.74, 1006.83)"><path class="c" d="M489.7,358.482h85.637a10.7,10.7,0,0,1,10.7,10.45,10.862,10.862,0,0,1-10.944,10.96H489.7a10.7,10.7,0,0,1-10.7-10.7V347.777A10.7,10.7,0,0,0,489.7,358.482Z" transform="translate(1489.21 363.87) rotate(135)"/></g><rect class="d" width="76.393" height="21.409" rx="10.705" transform="translate(85.637 76.393) rotate(-90)"/><g class="o" transform="matrix(-0.71, -0.71, 0.71, -0.71, 316.74, 1006.83)"><path class="e" d="M575.342,243.409H489.7a10.7,10.7,0,1,1,0-21.409h85.637a10.7,10.7,0,0,1,10.7,10.7v21.409A10.7,10.7,0,0,0,575.342,243.409Z" transform="translate(1431.58 306.24) rotate(135)"/></g></g></g><g transform="translate(832.241 749.376) rotate(-90)"><g transform="translate(524.049 267.61)"><rect class="b" width="76.393" height="21.409" rx="10.705" transform="translate(21.409 0) rotate(90)"/><g class="n" transform="matrix(0, 1, -1, 0, 225.33, -1099.85)"><path class="c" d="M489.7,358.482h85.637a10.7,10.7,0,0,1,10.7,10.45,10.862,10.862,0,0,1-10.944,10.96H489.7a10.7,10.7,0,0,1-10.7-10.7V347.777A10.7,10.7,0,0,0,489.7,358.482Z" transform="translate(796.35 704.33) rotate(-90)"/></g><rect class="d" width="76.393" height="21.409" rx="10.705" transform="translate(85.637 76.393) rotate(-90)"/><g class="m" transform="matrix(0, 1, -1, 0, 225.33, -1099.85)"><path class="e" d="M575.342,243.409H489.7a10.7,10.7,0,1,1,0-21.409h85.637a10.7,10.7,0,0,1,10.7,10.7v21.409A10.7,10.7,0,0,0,575.342,243.409Z" transform="translate(877.85 704.33) rotate(-90)"/></g></g></g><g transform="translate(1715.62 831.27) rotate(180)"><g transform="translate(524.049 267.61)"><g transform="translate(0 0)"><rect class="b" width="103.052" height="21.409" rx="10.705" transform="translate(21.409 0) rotate(90)"/><g class="l" transform="matrix(-1, 0, 0, -1, 1191.57, 563.66)"><path class="c" d="M489.7,358.482h85.637a10.7,10.7,0,0,1,10.7,10.45,10.862,10.862,0,0,1-10.944,10.96H489.7a10.7,10.7,0,0,1-10.7-10.7V347.777A10.7,10.7,0,0,0,489.7,358.482Z" transform="translate(1670.57 840.5) rotate(180)"/></g></g><rect class="d" width="103.052" height="21.409" rx="10.705" transform="translate(85.637 103.052) rotate(-90)"/><g class="k" transform="matrix(-1, 0, 0, -1, 1191.57, 563.66)"><path class="e" d="M575.342,243.409H489.7a10.7,10.7,0,1,1,0-21.409h85.637a10.7,10.7,0,0,1,10.7,10.7v21.409A10.7,10.7,0,0,0,575.342,243.409Z" transform="translate(1670.57 785.66) rotate(180)"/></g></g></g><path class="f" d="M32.232,8A24.232,24.232,0,1,0,56.463,32.232,24.227,24.227,0,0,0,32.232,8ZM44.113,38.592a1.174,1.174,0,0,1,0,1.661l-3.869,3.859a1.174,1.174,0,0,1-1.661,0L32.232,37.7l-6.361,6.41a1.174,1.174,0,0,1-1.661,0L20.35,40.244a1.174,1.174,0,0,1,0-1.661l6.41-6.351-6.41-6.361a1.174,1.174,0,0,1,0-1.661l3.869-3.869a1.174,1.174,0,0,1,1.661,0l6.351,6.419,6.361-6.41a1.174,1.174,0,0,1,1.661,0l3.869,3.869a1.174,1.174,0,0,1,0,1.661L37.7,32.232Z" transform="translate(838.815 253.376)"/><path class="f" d="M32.232,8A24.232,24.232,0,1,0,56.463,32.232,24.227,24.227,0,0,0,32.232,8ZM44.113,38.592a1.174,1.174,0,0,1,0,1.661l-3.869,3.859a1.174,1.174,0,0,1-1.661,0L32.232,37.7l-6.361,6.41a1.174,1.174,0,0,1-1.661,0L20.35,40.244a1.174,1.174,0,0,1,0-1.661l6.41-6.351-6.41-6.361a1.174,1.174,0,0,1,0-1.661l3.869-3.869a1.174,1.174,0,0,1,1.661,0l6.351,6.419,6.361-6.41a1.174,1.174,0,0,1,1.661,0l3.869,3.869a1.174,1.174,0,0,1,0,1.661L37.7,32.232Z" transform="translate(838.815 580.376)"/><path class="f" d="M32.232,8A24.232,24.232,0,1,0,56.463,32.232,24.227,24.227,0,0,0,32.232,8ZM44.113,38.592a1.174,1.174,0,0,1,0,1.661l-3.869,3.859a1.174,1.174,0,0,1-1.661,0L32.232,37.7l-6.361,6.41a1.174,1.174,0,0,1-1.661,0L20.35,40.244a1.174,1.174,0,0,1,0-1.661l6.41-6.351-6.41-6.361a1.174,1.174,0,0,1,0-1.661l3.869-3.869a1.174,1.174,0,0,1,1.661,0l6.351,6.419,6.361-6.41a1.174,1.174,0,0,1,1.661,0l3.869,3.869a1.174,1.174,0,0,1,0,1.661L37.7,32.232Z" transform="translate(1105.815 253.376)"/><path class="f" d="M32.232,8A24.232,24.232,0,1,0,56.463,32.232,24.227,24.227,0,0,0,32.232,8ZM44.113,38.592a1.174,1.174,0,0,1,0,1.661l-3.869,3.859a1.174,1.174,0,0,1-1.661,0L32.232,37.7l-6.361,6.41a1.174,1.174,0,0,1-1.661,0L20.35,40.244a1.174,1.174,0,0,1,0-1.661l6.41-6.351-6.41-6.361a1.174,1.174,0,0,1,0-1.661l3.869-3.869a1.174,1.174,0,0,1,1.661,0l6.351,6.419,6.361-6.41a1.174,1.174,0,0,1,1.661,0l3.869,3.869a1.174,1.174,0,0,1,0,1.661L37.7,32.232Z" transform="translate(1105.815 580.376)"/><path class="g" d="M56.463,32.232A24.232,24.232,0,1,1,32.232,8,24.232,24.232,0,0,1,56.463,32.232ZM29.429,45.062,47.407,27.084a1.563,1.563,0,0,0,0-2.211L45.2,22.662a1.563,1.563,0,0,0-2.211,0L28.323,37.324l-6.845-6.845a1.563,1.563,0,0,0-2.211,0l-2.211,2.211a1.563,1.563,0,0,0,0,2.211L27.218,45.062a1.563,1.563,0,0,0,2.211,0Z" transform="translate(281.339 490.804)"/><line class="h" y2="548" transform="translate(631.5 118.5)"/><rect class="i" width="182" height="12" rx="5" transform="translate(780 327)"/><rect class="i" width="182" height="12" rx="5" transform="translate(780 654)"/><rect class="i" width="182" height="12" rx="5" transform="translate(223 573.428)"/><rect class="i" width="182" height="12" rx="5" transform="translate(1047 327)"/><rect class="i" width="182" height="12" rx="5" transform="translate(1047 654)"/><rect class="i" width="146" height="12" rx="5" transform="translate(798 350)"/><rect class="i" width="146" height="12" rx="5" transform="translate(798 677)"/><rect class="i" width="146" height="12" rx="5" transform="translate(241 596.428)"/><rect class="i" width="146" height="12" rx="5" transform="translate(1065 350)"/><rect class="i" width="146" height="12" rx="5" transform="translate(1065 677)"/><rect class="i" width="158" height="12" rx="5" transform="translate(792 373)"/><rect class="i" width="158" height="12" rx="5" transform="translate(792 700)"/><rect class="i" width="158" height="12" rx="5" transform="translate(235 619.428)"/><rect class="i" width="158" height="12" rx="5" transform="translate(1059 373)"/><rect class="i" width="158" height="12" rx="5" transform="translate(1059 700)"/></g></svg>